<svg fill="none" height="16" viewBox="0 0 750 750" width="16" xmlns="http://www.w3.org/2000/svg"><path d="m113 609h525v50h-525z" fill="#5d75c3"/><path d="m113 168h525v50h-525z" fill="#5d75c3"/><g fill="#8da5f3"><path d="m638 50h100v698c0 1.105-.895 2-2 2h-96c-1.105 0-2-.895-2-2z"/><rect height="35" rx="5" width="125" x="625" y="15"/><path d="m643 5c0-2.76142 2.239-5 5-5h80c2.761 0 5 2.23858 5 5v10h-90z"/><path d="m13 50h100v698c0 1.105-.895 2-2 2h-96c-1.1046 0-2-.895-2-2z"/><rect height="35" rx="5" width="125" y="15"/><path d="m18 5c0-2.76142 2.2386-5 5-5h80c2.761 0 5 2.23858 5 5v10h-90z"/><path d="m529 72.5h75v648c0 1.105-.895 2-2 2h-71c-1.105 0-2-.895-2-2z"/><path d="m529 72.5 35.535-30.7972c1.128-.9772 2.802-.9772 3.93 0l35.535 30.7972z"/><path d="m433 122.5h75v598c0 1.105-.895 2-2 2h-71c-1.105 0-2-.895-2-2z"/><path d="m433 122.5 35.535-30.7972c1.128-.9772 2.802-.9772 3.93 0l35.535 30.7972z"/><path d="m337 147.5h75v573c0 1.105-.895 2-2 2h-71c-1.105 0-2-.895-2-2z"/><path d="m337 147.5 35.535-30.797c1.128-.977 2.802-.977 3.93 0l35.535 30.797z"/><path d="m241 122.5h75v598c0 1.105-.895 2-2 2h-71c-1.105 0-2-.895-2-2z"/><path d="m241 122.5 35.535-30.7972c1.128-.9772 2.802-.9772 3.93 0l35.535 30.7972z"/><path d="m145 72.5h75v648c0 1.105-.895 2-2 2h-71c-1.105 0-2-.895-2-2z"/><path d="m145 72.5 35.535-30.7972c1.128-.9772 2.802-.9772 3.93 0l35.535 30.7972z"/></g></svg>