<svg width="2648" height="750" viewBox="0 0 2648 750" fill="none" xmlns="http://www.w3.org/2000/svg">
<rect width="2648" height="750" fill="#1E1E1E"/>
<rect x="1363" y="609" width="525" height="50" fill="#494949"/>
<rect x="1363" y="168" width="525" height="50" fill="#494949"/>
<path d="M1888 50H1988V748C1988 749.105 1987.1 750 1986 750H1890C1888.9 750 1888 749.105 1888 748V50Z" fill="#797979"/>
<rect x="1875" y="15" width="125" height="35" rx="5" fill="#797979"/>
<path d="M1893 5C1893 2.23858 1895.24 0 1898 0H1978C1980.76 0 1983 2.23858 1983 5V15H1893V5Z" fill="#797979"/>
<path d="M1263 50H1363V748C1363 749.105 1362.1 750 1361 750H1265C1263.9 750 1263 749.105 1263 748V50Z" fill="#797979"/>
<rect x="1250" y="15" width="125" height="35" rx="5" fill="#797979"/>
<path d="M1268 5C1268 2.23858 1270.24 0 1273 0H1353C1355.76 0 1358 2.23858 1358 5V15H1268V5Z" fill="#797979"/>
<path d="M1779 72.5H1854V720.5C1854 721.605 1853.1 722.5 1852 722.5H1781C1779.9 722.5 1779 721.605 1779 720.5V72.5Z" fill="#797979"/>
<path d="M1779 72.5L1814.54 41.7028C1815.66 40.7256 1817.34 40.7256 1818.46 41.7028L1854 72.5H1779Z" fill="#797979"/>
<path d="M1683 122.5H1758V720.5C1758 721.605 1757.1 722.5 1756 722.5H1685C1683.9 722.5 1683 721.605 1683 720.5V122.5Z" fill="#797979"/>
<path d="M1683 122.5L1718.54 91.7028C1719.66 90.7256 1721.34 90.7256 1722.46 91.7028L1758 122.5H1683Z" fill="#797979"/>
<path d="M1587 147.5H1662V720.5C1662 721.605 1661.1 722.5 1660 722.5H1589C1587.9 722.5 1587 721.605 1587 720.5V147.5Z" fill="#797979"/>
<path d="M1587 147.5L1622.54 116.703C1623.66 115.726 1625.34 115.726 1626.46 116.703L1662 147.5H1587Z" fill="#797979"/>
<path d="M1491 122.5H1566V720.5C1566 721.605 1565.1 722.5 1564 722.5H1493C1491.9 722.5 1491 721.605 1491 720.5V122.5Z" fill="#797979"/>
<path d="M1491 122.5L1526.54 91.7028C1527.66 90.7256 1529.34 90.7256 1530.46 91.7028L1566 122.5H1491Z" fill="#797979"/>
<path d="M1395 72.5H1470V720.5C1470 721.605 1469.1 722.5 1468 722.5H1397C1395.9 722.5 1395 721.605 1395 720.5V72.5Z" fill="#797979"/>
<path d="M1395 72.5L1430.54 41.7028C1431.66 40.7256 1433.34 40.7256 1434.46 41.7028L1470 72.5H1395Z" fill="#797979"/>
<rect x="1988" y="609" width="525" height="50" fill="#494949"/>
<rect x="1988" y="168" width="525" height="50" fill="#494949"/>
<path d="M2513 50H2613V748C2613 749.105 2612.1 750 2611 750H2515C2513.9 750 2513 749.105 2513 748V50Z" fill="#797979"/>
<rect x="2500" y="15" width="125" height="35" rx="5" fill="#797979"/>
<path d="M2518 5C2518 2.23858 2520.24 0 2523 0H2603C2605.76 0 2608 2.23858 2608 5V15H2518V5Z" fill="#797979"/>
<path d="M1888 50H1988V748C1988 749.105 1987.1 750 1986 750H1890C1888.9 750 1888 749.105 1888 748V50Z" fill="#797979"/>
<rect x="1875" y="15" width="125" height="35" rx="5" fill="#797979"/>
<path d="M1893 5C1893 2.23858 1895.24 0 1898 0H1978C1980.76 0 1983 2.23858 1983 5V15H1893V5Z" fill="#797979"/>
<path d="M2404 72.5H2479V720.5C2479 721.605 2478.1 722.5 2477 722.5H2406C2404.9 722.5 2404 721.605 2404 720.5V72.5Z" fill="#797979"/>
<path d="M2404 72.5L2439.54 41.7028C2440.66 40.7256 2442.34 40.7256 2443.46 41.7028L2479 72.5H2404Z" fill="#797979"/>
<path d="M2308 122.5H2383V720.5C2383 721.605 2382.1 722.5 2381 722.5H2310C2308.9 722.5 2308 721.605 2308 720.5V122.5Z" fill="#797979"/>
<path d="M2308 122.5L2343.54 91.7028C2344.66 90.7256 2346.34 90.7256 2347.46 91.7028L2383 122.5H2308Z" fill="#797979"/>
<path d="M2212 147.5H2287V720.5C2287 721.605 2286.1 722.5 2285 722.5H2214C2212.9 722.5 2212 721.605 2212 720.5V147.5Z" fill="#797979"/>
<path d="M2212 147.5L2247.54 116.703C2248.66 115.726 2250.34 115.726 2251.46 116.703L2287 147.5H2212Z" fill="#797979"/>
<path d="M2116 122.5H2191V720.5C2191 721.605 2190.1 722.5 2189 722.5H2118C2116.9 722.5 2116 721.605 2116 720.5V122.5Z" fill="#797979"/>
<path d="M2116 122.5L2151.54 91.7028C2152.66 90.7256 2154.34 90.7256 2155.46 91.7028L2191 122.5H2116Z" fill="#797979"/>
<path d="M2020 72.5H2095V720.5C2095 721.605 2094.1 722.5 2093 722.5H2022C2020.9 722.5 2020 721.605 2020 720.5V72.5Z" fill="#797979"/>
<path d="M2020 72.5L2055.54 41.7028C2056.66 40.7256 2058.34 40.7256 2059.46 41.7028L2095 72.5H2020Z" fill="#797979"/>
<rect x="738" y="609" width="525" height="50" fill="#494949"/>
<rect x="738" y="168" width="525" height="50" fill="#494949"/>
<path d="M1263 50H1363V748C1363 749.105 1362.1 750 1361 750H1265C1263.9 750 1263 749.105 1263 748V50Z" fill="#797979"/>
<rect x="1250" y="15" width="125" height="35" rx="5" fill="#797979"/>
<path d="M1268 5C1268 2.23858 1270.24 0 1273 0H1353C1355.76 0 1358 2.23858 1358 5V15H1268V5Z" fill="#797979"/>
<path d="M638 50H738V748C738 749.105 737.105 750 736 750H640C638.895 750 638 749.105 638 748V50Z" fill="#797979"/>
<rect x="625" y="15" width="125" height="35" rx="5" fill="#797979"/>
<path d="M643 5C643 2.23858 645.239 0 648 0H728C730.761 0 733 2.23858 733 5V15H643V5Z" fill="#797979"/>
<path d="M1154 72.5H1229V720.5C1229 721.605 1228.1 722.5 1227 722.5H1156C1154.9 722.5 1154 721.605 1154 720.5V72.5Z" fill="#797979"/>
<path d="M1154 72.5L1189.54 41.7028C1190.66 40.7256 1192.34 40.7256 1193.46 41.7028L1229 72.5H1154Z" fill="#797979"/>
<path d="M1058 122.5H1133V720.5C1133 721.605 1132.1 722.5 1131 722.5H1060C1058.9 722.5 1058 721.605 1058 720.5V122.5Z" fill="#797979"/>
<path d="M1058 122.5L1093.54 91.7028C1094.66 90.7256 1096.34 90.7256 1097.46 91.7028L1133 122.5H1058Z" fill="#797979"/>
<path d="M962 147.5H1037V720.5C1037 721.605 1036.1 722.5 1035 722.5H964C962.895 722.5 962 721.605 962 720.5V147.5Z" fill="#797979"/>
<path d="M962 147.5L997.535 116.703C998.663 115.726 1000.34 115.726 1001.46 116.703L1037 147.5H962Z" fill="#797979"/>
<path d="M866 122.5H941V720.5C941 721.605 940.105 722.5 939 722.5H868C866.895 722.5 866 721.605 866 720.5V122.5Z" fill="#797979"/>
<path d="M866 122.5L901.535 91.7028C902.663 90.7256 904.337 90.7256 905.465 91.7028L941 122.5H866Z" fill="#797979"/>
<path d="M770 72.5H845V720.5C845 721.605 844.105 722.5 843 722.5H772C770.895 722.5 770 721.605 770 720.5V72.5Z" fill="#797979"/>
<path d="M770 72.5L805.535 41.7028C806.663 40.7256 808.337 40.7256 809.465 41.7028L845 72.5H770Z" fill="#797979"/>
<g filter="url(#filter0_d_0_1)">
<text fill="#C3C3C3" xml:space="preserve" style="white-space: pre" font-family="Rokkitt" font-size="842" letter-spacing="-0.02em"><tspan x="575" y="659.443">Picket</tspan></text>
</g>
<rect x="113" y="609" width="525" height="50" fill="#C4C4C4"/>
<rect x="113" y="168" width="525" height="50" fill="#C4C4C4"/>
<path d="M638 50H738V748C738 749.105 737.105 750 736 750H640C638.895 750 638 749.105 638 748V50Z" fill="#F3F3F3"/>
<rect x="625" y="15" width="125" height="35" rx="5" fill="#F3F3F3"/>
<path d="M643 5C643 2.23858 645.239 0 648 0H728C730.761 0 733 2.23858 733 5V15H643V5Z" fill="#F3F3F3"/>
<path d="M13 50H113V748C113 749.105 112.105 750 111 750H15C13.8954 750 13 749.105 13 748V50Z" fill="#F3F3F3"/>
<rect y="15" width="125" height="35" rx="5" fill="#F3F3F3"/>
<path d="M18 5C18 2.23858 20.2386 0 23 0H103C105.761 0 108 2.23858 108 5V15H18V5Z" fill="#F3F3F3"/>
<path d="M529 72.5H604V720.5C604 721.605 603.105 722.5 602 722.5H531C529.895 722.5 529 721.605 529 720.5V72.5Z" fill="#F3F3F3"/>
<path d="M529 72.5L564.535 41.7028C565.663 40.7256 567.337 40.7256 568.465 41.7028L604 72.5H529Z" fill="#F3F3F3"/>
<path d="M433 122.5H508V720.5C508 721.605 507.105 722.5 506 722.5H435C433.895 722.5 433 721.605 433 720.5V122.5Z" fill="#F3F3F3"/>
<path d="M433 122.5L468.535 91.7028C469.663 90.7256 471.337 90.7256 472.465 91.7028L508 122.5H433Z" fill="#F3F3F3"/>
<path d="M337 147.5H412V720.5C412 721.605 411.105 722.5 410 722.5H339C337.895 722.5 337 721.605 337 720.5V147.5Z" fill="#F3F3F3"/>
<path d="M337 147.5L372.535 116.703C373.663 115.726 375.337 115.726 376.465 116.703L412 147.5H337Z" fill="#F3F3F3"/>
<path d="M241 122.5H316V720.5C316 721.605 315.105 722.5 314 722.5H243C241.895 722.5 241 721.605 241 720.5V122.5Z" fill="#F3F3F3"/>
<path d="M241 122.5L276.535 91.7028C277.663 90.7256 279.337 90.7256 280.465 91.7028L316 122.5H241Z" fill="#F3F3F3"/>
<path d="M145 72.5H220V720.5C220 721.605 219.105 722.5 218 722.5H147C145.895 722.5 145 721.605 145 720.5V72.5Z" fill="#F3F3F3"/>
<path d="M145 72.5L180.535 41.7028C181.663 40.7256 183.337 40.7256 184.465 41.7028L220 72.5H145Z" fill="#F3F3F3"/>
<defs>
<filter id="filter0_d_0_1" x="602.154" y="168.114" width="2042.86" height="507.306" filterUnits="userSpaceOnUse" color-interpolation-filters="sRGB">
<feFlood flood-opacity="0" result="BackgroundImageFix"/>
<feColorMatrix in="SourceAlpha" type="matrix" values="0 0 0 0 0 0 0 0 0 0 0 0 0 0 0 0 0 0 127 0" result="hardAlpha"/>
<feOffset dy="4"/>
<feGaussianBlur stdDeviation="2"/>
<feComposite in2="hardAlpha" operator="out"/>
<feColorMatrix type="matrix" values="0 0 0 0 0 0 0 0 0 0 0 0 0 0 0 0 0 0 0.25 0"/>
<feBlend mode="normal" in2="BackgroundImageFix" result="effect1_dropShadow_0_1"/>
<feBlend mode="normal" in="SourceGraphic" in2="effect1_dropShadow_0_1" result="shape"/>
</filter>
</defs>
</svg>
