<svg width="2648" height="750" viewBox="0 0 2648 750" fill="none" xmlns="http://www.w3.org/2000/svg">
<rect x="1363" y="609" width="525" height="50" fill="#494949"/>
<rect x="1363" y="168" width="525" height="50" fill="#494949"/>
<path d="M1888 50H1988V748C1988 749.105 1987.1 750 1986 750H1890C1888.9 750 1888 749.105 1888 748V50Z" fill="#797979"/>
<rect x="1875" y="15" width="125" height="35" rx="5" fill="#797979"/>
<path d="M1893 5C1893 2.23858 1895.24 0 1898 0H1978C1980.76 0 1983 2.23858 1983 5V15H1893V5Z" fill="#797979"/>
<path d="M1263 50H1363V748C1363 749.105 1362.1 750 1361 750H1265C1263.9 750 1263 749.105 1263 748V50Z" fill="#797979"/>
<rect x="1250" y="15" width="125" height="35" rx="5" fill="#797979"/>
<path d="M1268 5C1268 2.23858 1270.24 0 1273 0H1353C1355.76 0 1358 2.23858 1358 5V15H1268V5Z" fill="#797979"/>
<path d="M1779 72.5H1854V720.5C1854 721.605 1853.1 722.5 1852 722.5H1781C1779.9 722.5 1779 721.605 1779 720.5V72.5Z" fill="#797979"/>
<path d="M1779 72.5L1814.54 41.7028C1815.66 40.7256 1817.34 40.7256 1818.46 41.7028L1854 72.5H1779Z" fill="#797979"/>
<path d="M1683 122.5H1758V720.5C1758 721.605 1757.1 722.5 1756 722.5H1685C1683.9 722.5 1683 721.605 1683 720.5V122.5Z" fill="#797979"/>
<path d="M1683 122.5L1718.54 91.7028C1719.66 90.7256 1721.34 90.7256 1722.46 91.7028L1758 122.5H1683Z" fill="#797979"/>
<path d="M1587 147.5H1662V720.5C1662 721.605 1661.1 722.5 1660 722.5H1589C1587.9 722.5 1587 721.605 1587 720.5V147.5Z" fill="#797979"/>
<path d="M1587 147.5L1622.54 116.703C1623.66 115.726 1625.34 115.726 1626.46 116.703L1662 147.5H1587Z" fill="#797979"/>
<path d="M1491 122.5H1566V720.5C1566 721.605 1565.1 722.5 1564 722.5H1493C1491.9 722.5 1491 721.605 1491 720.5V122.5Z" fill="#797979"/>
<path d="M1491 122.5L1526.54 91.7028C1527.66 90.7256 1529.34 90.7256 1530.46 91.7028L1566 122.5H1491Z" fill="#797979"/>
<path d="M1395 72.5H1470V720.5C1470 721.605 1469.1 722.5 1468 722.5H1397C1395.9 722.5 1395 721.605 1395 720.5V72.5Z" fill="#797979"/>
<path d="M1395 72.5L1430.54 41.7028C1431.66 40.7256 1433.34 40.7256 1434.46 41.7028L1470 72.5H1395Z" fill="#797979"/>
<rect x="1988" y="609" width="525" height="50" fill="#494949"/>
<rect x="1988" y="168" width="525" height="50" fill="#494949"/>
<path d="M2513 50H2613V748C2613 749.105 2612.1 750 2611 750H2515C2513.9 750 2513 749.105 2513 748V50Z" fill="#797979"/>
<rect x="2500" y="15" width="125" height="35" rx="5" fill="#797979"/>
<path d="M2518 5C2518 2.23858 2520.24 0 2523 0H2603C2605.76 0 2608 2.23858 2608 5V15H2518V5Z" fill="#797979"/>
<path d="M1888 50H1988V748C1988 749.105 1987.1 750 1986 750H1890C1888.9 750 1888 749.105 1888 748V50Z" fill="#797979"/>
<rect x="1875" y="15" width="125" height="35" rx="5" fill="#797979"/>
<path d="M1893 5C1893 2.23858 1895.24 0 1898 0H1978C1980.76 0 1983 2.23858 1983 5V15H1893V5Z" fill="#797979"/>
<path d="M2404 72.5H2479V720.5C2479 721.605 2478.1 722.5 2477 722.5H2406C2404.9 722.5 2404 721.605 2404 720.5V72.5Z" fill="#797979"/>
<path d="M2404 72.5L2439.54 41.7028C2440.66 40.7256 2442.34 40.7256 2443.46 41.7028L2479 72.5H2404Z" fill="#797979"/>
<path d="M2308 122.5H2383V720.5C2383 721.605 2382.1 722.5 2381 722.5H2310C2308.9 722.5 2308 721.605 2308 720.5V122.5Z" fill="#797979"/>
<path d="M2308 122.5L2343.54 91.7028C2344.66 90.7256 2346.34 90.7256 2347.46 91.7028L2383 122.5H2308Z" fill="#797979"/>
<path d="M2212 147.5H2287V720.5C2287 721.605 2286.1 722.5 2285 722.5H2214C2212.9 722.5 2212 721.605 2212 720.5V147.5Z" fill="#797979"/>
<path d="M2212 147.5L2247.54 116.703C2248.66 115.726 2250.34 115.726 2251.46 116.703L2287 147.5H2212Z" fill="#797979"/>
<path d="M2116 122.5H2191V720.5C2191 721.605 2190.1 722.5 2189 722.5H2118C2116.9 722.5 2116 721.605 2116 720.5V122.5Z" fill="#797979"/>
<path d="M2116 122.5L2151.54 91.7028C2152.66 90.7256 2154.34 90.7256 2155.46 91.7028L2191 122.5H2116Z" fill="#797979"/>
<path d="M2020 72.5H2095V720.5C2095 721.605 2094.1 722.5 2093 722.5H2022C2020.9 722.5 2020 721.605 2020 720.5V72.5Z" fill="#797979"/>
<path d="M2020 72.5L2055.54 41.7028C2056.66 40.7256 2058.34 40.7256 2059.46 41.7028L2095 72.5H2020Z" fill="#797979"/>
<rect x="738" y="609" width="525" height="50" fill="#494949"/>
<rect x="738" y="168" width="525" height="50" fill="#494949"/>
<path d="M1263 50H1363V748C1363 749.105 1362.1 750 1361 750H1265C1263.9 750 1263 749.105 1263 748V50Z" fill="#797979"/>
<rect x="1250" y="15" width="125" height="35" rx="5" fill="#797979"/>
<path d="M1268 5C1268 2.23858 1270.24 0 1273 0H1353C1355.76 0 1358 2.23858 1358 5V15H1268V5Z" fill="#797979"/>
<path d="M638 50H738V748C738 749.105 737.105 750 736 750H640C638.895 750 638 749.105 638 748V50Z" fill="#797979"/>
<rect x="625" y="15" width="125" height="35" rx="5" fill="#797979"/>
<path d="M643 5C643 2.23858 645.239 0 648 0H728C730.761 0 733 2.23858 733 5V15H643V5Z" fill="#797979"/>
<path d="M1154 72.5H1229V720.5C1229 721.605 1228.1 722.5 1227 722.5H1156C1154.9 722.5 1154 721.605 1154 720.5V72.5Z" fill="#797979"/>
<path d="M1154 72.5L1189.54 41.7028C1190.66 40.7256 1192.34 40.7256 1193.46 41.7028L1229 72.5H1154Z" fill="#797979"/>
<path d="M1058 122.5H1133V720.5C1133 721.605 1132.1 722.5 1131 722.5H1060C1058.9 722.5 1058 721.605 1058 720.5V122.5Z" fill="#797979"/>
<path d="M1058 122.5L1093.54 91.7028C1094.66 90.7256 1096.34 90.7256 1097.46 91.7028L1133 122.5H1058Z" fill="#797979"/>
<path d="M962 147.5H1037V720.5C1037 721.605 1036.1 722.5 1035 722.5H964C962.895 722.5 962 721.605 962 720.5V147.5Z" fill="#797979"/>
<path d="M962 147.5L997.535 116.703C998.663 115.726 1000.34 115.726 1001.46 116.703L1037 147.5H962Z" fill="#797979"/>
<path d="M866 122.5H941V720.5C941 721.605 940.105 722.5 939 722.5H868C866.895 722.5 866 721.605 866 720.5V122.5Z" fill="#797979"/>
<path d="M866 122.5L901.535 91.7028C902.663 90.7256 904.337 90.7256 905.465 91.7028L941 122.5H866Z" fill="#797979"/>
<path d="M770 72.5H845V720.5C845 721.605 844.105 722.5 843 722.5H772C770.895 722.5 770 721.605 770 720.5V72.5Z" fill="#797979"/>
<path d="M770 72.5L805.535 41.7028C806.663 40.7256 808.337 40.7256 809.465 41.7028L845 72.5H770Z" fill="#797979"/>
<g filter="url(#filter0_d_5_43)">
<path d="M606.154 659V609.322H668.462V217.792H606.154V168.114H866.332C921.343 168.114 962.601 180.183 990.106 204.32C1017.61 227.896 1031.36 262.979 1031.36 309.57C1031.36 356.722 1017.61 392.086 990.106 415.662C962.601 439.238 921.343 451.026 866.332 451.026H777.08V400.506H856.228C891.592 400.506 917.694 392.647 934.534 376.93C951.374 361.213 959.794 338.759 959.794 309.57C959.794 279.819 951.374 257.085 934.534 241.368C918.255 225.651 892.153 217.792 856.228 217.792H737.506V609.322H819.18V659H606.154ZM1068.4 659V611.848H1126.5V371.878H1064.19V324.726H1188.8V611.848H1242.69V659H1068.4ZM1157.65 262.418C1143.62 262.418 1132.67 258.489 1124.81 250.63C1117.52 242.21 1113.87 232.106 1113.87 220.318C1113.87 207.969 1117.52 197.865 1124.81 190.006C1132.67 181.586 1143.62 177.376 1157.65 177.376C1171.12 177.376 1181.51 181.586 1188.8 190.006C1196.66 197.865 1200.59 207.969 1200.59 220.318C1200.59 232.106 1196.66 242.21 1188.8 250.63C1181.51 258.489 1171.12 262.418 1157.65 262.418ZM1464.04 667.42C1425.87 667.42 1393.03 659.842 1365.53 644.686C1338.02 628.969 1316.97 607.919 1302.38 581.536C1287.78 554.592 1280.48 524.28 1280.48 490.6C1280.48 457.481 1287.22 428.011 1300.69 402.19C1314.16 375.807 1333.53 355.038 1358.79 339.882C1384.05 324.165 1414.36 316.306 1449.73 316.306C1468.81 316.306 1486.49 319.393 1502.77 325.568C1519.05 331.743 1532.52 340.443 1543.19 351.67C1554.41 362.897 1561.15 376.649 1563.4 392.928L1554.98 394.612V324.726H1600.44V440.08H1558.34C1545.99 392.367 1512.03 368.51 1456.46 368.51C1418.29 368.51 1389.38 380.017 1369.74 403.032C1350.65 425.485 1341.11 455.236 1341.11 492.284C1341.11 528.209 1352.05 557.96 1373.95 581.536C1395.84 604.551 1426.99 616.058 1467.41 616.058C1487.62 616.058 1508.1 611.567 1528.87 602.586C1549.64 593.605 1566.48 582.378 1579.39 568.906L1608.86 611.848C1591.46 629.249 1569.29 643.002 1542.35 653.106C1515.4 662.649 1489.3 667.42 1464.04 667.42ZM1752.77 611.848H1801.61V659H1632.37V611.848H1690.47V215.266H1628.16V168.114H1752.77V483.864L1896.76 371.878H1841.18V324.726H2007.9V371.878H1956.54L1795.72 494.81L1813.4 465.34L1960.75 611.848H2023.9V659H1920.33L1752.77 489.758V611.848ZM2224.06 667.42C2181.96 667.42 2146.32 659.842 2117.13 644.686C2088.5 628.969 2066.89 607.919 2052.3 581.536C2038.26 554.592 2031.25 524.841 2031.25 492.284C2031.25 459.165 2038.26 429.415 2052.3 403.032C2066.89 376.649 2087.38 355.599 2113.76 339.882C2140.14 324.165 2171.3 316.306 2207.22 316.306C2243.15 316.306 2274.02 324.165 2299.84 339.882C2325.66 355.599 2345.31 376.649 2358.78 403.032C2372.82 428.853 2379.83 458.604 2379.83 492.284V516.702H2068.29V467.866H2320.89C2320.89 449.342 2316.12 432.221 2306.58 416.504C2297.6 400.787 2284.41 388.157 2267.01 378.614C2250.17 368.51 2230.24 363.458 2207.22 363.458C2183.09 363.458 2162.32 368.791 2144.92 379.456C2127.51 389.56 2114.04 403.313 2104.5 420.714C2095.52 437.554 2091.03 455.797 2091.03 475.444V492.284C2091.03 529.893 2102.25 559.925 2124.71 582.378C2147.72 604.831 2181.4 616.058 2225.75 616.058C2249.32 616.058 2272.06 611.848 2293.95 603.428C2316.4 595.008 2334.93 583.781 2349.52 569.748L2376.47 614.374C2357.94 630.653 2335.21 643.563 2308.26 653.106C2281.32 662.649 2253.25 667.42 2224.06 667.42ZM2577.86 667.42C2544.18 667.42 2516.68 658.439 2495.35 640.476C2474.58 621.952 2464.19 592.482 2464.19 552.066V371.878H2401.88V324.726H2464.19V212.74L2525.66 200.952V324.726H2619.96V371.878H2525.66V542.804C2525.66 570.309 2531.55 589.114 2543.34 599.218C2555.13 609.322 2570.84 614.374 2590.49 614.374C2597.79 614.374 2605.09 613.532 2612.38 611.848C2619.68 610.164 2626.14 608.199 2631.75 605.954L2641.01 653.106C2632.59 657.035 2622.77 660.403 2611.54 663.21C2600.88 666.017 2589.65 667.42 2577.86 667.42Z" fill="#C3C3C3"/>
</g>
<rect x="113" y="609" width="525" height="50" fill="#C4C4C4"/>
<rect x="113" y="168" width="525" height="50" fill="#C4C4C4"/>
<path d="M638 50H738V748C738 749.105 737.105 750 736 750H640C638.895 750 638 749.105 638 748V50Z" fill="#F3F3F3"/>
<rect x="625" y="15" width="125" height="35" rx="5" fill="#F3F3F3"/>
<path d="M643 5C643 2.23858 645.239 0 648 0H728C730.761 0 733 2.23858 733 5V15H643V5Z" fill="#F3F3F3"/>
<path d="M13 50H113V748C113 749.105 112.105 750 111 750H15C13.8954 750 13 749.105 13 748V50Z" fill="#F3F3F3"/>
<rect y="15" width="125" height="35" rx="5" fill="#F3F3F3"/>
<path d="M18 5C18 2.23858 20.2386 0 23 0H103C105.761 0 108 2.23858 108 5V15H18V5Z" fill="#F3F3F3"/>
<path d="M529 72.5H604V720.5C604 721.605 603.105 722.5 602 722.5H531C529.895 722.5 529 721.605 529 720.5V72.5Z" fill="#F3F3F3"/>
<path d="M529 72.5L564.535 41.7028C565.663 40.7256 567.337 40.7256 568.465 41.7028L604 72.5H529Z" fill="#F3F3F3"/>
<path d="M433 122.5H508V720.5C508 721.605 507.105 722.5 506 722.5H435C433.895 722.5 433 721.605 433 720.5V122.5Z" fill="#F3F3F3"/>
<path d="M433 122.5L468.535 91.7028C469.663 90.7256 471.337 90.7256 472.465 91.7028L508 122.5H433Z" fill="#F3F3F3"/>
<path d="M337 147.5H412V720.5C412 721.605 411.105 722.5 410 722.5H339C337.895 722.5 337 721.605 337 720.5V147.5Z" fill="#F3F3F3"/>
<path d="M337 147.5L372.535 116.703C373.663 115.726 375.337 115.726 376.465 116.703L412 147.5H337Z" fill="#F3F3F3"/>
<path d="M241 122.5H316V720.5C316 721.605 315.105 722.5 314 722.5H243C241.895 722.5 241 721.605 241 720.5V122.5Z" fill="#F3F3F3"/>
<path d="M241 122.5L276.535 91.7028C277.663 90.7256 279.337 90.7256 280.465 91.7028L316 122.5H241Z" fill="#F3F3F3"/>
<path d="M145 72.5H220V720.5C220 721.605 219.105 722.5 218 722.5H147C145.895 722.5 145 721.605 145 720.5V72.5Z" fill="#F3F3F3"/>
<path d="M145 72.5L180.535 41.7028C181.663 40.7256 183.337 40.7256 184.465 41.7028L220 72.5H145Z" fill="#F3F3F3"/>
<defs>
<filter id="filter0_d_5_43" x="602.154" y="168.114" width="2042.86" height="507.306" filterUnits="userSpaceOnUse" color-interpolation-filters="sRGB">
<feFlood flood-opacity="0" result="BackgroundImageFix"/>
<feColorMatrix in="SourceAlpha" type="matrix" values="0 0 0 0 0 0 0 0 0 0 0 0 0 0 0 0 0 0 127 0" result="hardAlpha"/>
<feOffset dy="4"/>
<feGaussianBlur stdDeviation="2"/>
<feComposite in2="hardAlpha" operator="out"/>
<feColorMatrix type="matrix" values="0 0 0 0 0 0 0 0 0 0 0 0 0 0 0 0 0 0 0.25 0"/>
<feBlend mode="normal" in2="BackgroundImageFix" result="effect1_dropShadow_5_43"/>
<feBlend mode="normal" in="SourceGraphic" in2="effect1_dropShadow_5_43" result="shape"/>
</filter>
</defs>
</svg>
